<?xml version="1.0" encoding="UTF-8"?>
<svg version="1.1" xmlns="http://www.w3.org/2000/svg" width="25" height="25">
<path d="M0 0 C6.27 0 12.54 0 19 0 C20.64285685 3.28571371 20.22630526 6.89247533 20.25 10.5 C20.270625 11.28503906 20.29125 12.07007813 20.3125 12.87890625 C20.328125 15.15625 20.328125 15.15625 20 19 C16.37653931 21.41564046 13.68396018 21.29781669 9.5 21.25 C8.82324219 21.25773437 8.14648438 21.26546875 7.44921875 21.2734375 C3.75080743 21.25884811 2.15396663 21.10264442 -1 19 C-1.24869641 16.08669922 -1.32634278 13.40579705 -1.25 10.5 C-1.24484375 9.71496094 -1.2396875 8.92992187 -1.234375 8.12109375 C-1.15462412 2.30924824 -1.15462412 2.30924824 0 0 Z M2 3 C1.92679837 5.5327765 1.90772431 8.03103918 1.9375 10.5625 C1.958125 13.016875 1.97875 15.47125 2 18 C6.95 18 11.9 18 17 18 C17.0309375 14.3184375 17.0309375 14.3184375 17.0625 10.5625 C17.071604 9.78849854 17.08070801 9.01449707 17.09008789 8.21704102 C17.09724913 6.47778283 17.05024702 4.73854696 17 3 C15.89259422 1.66789781 15.89259422 1.66789781 13.09375 1.8671875 C11.9078125 1.86976562 10.721875 1.87234375 9.5 1.875 C8.3140625 1.87242188 7.128125 1.86984375 5.90625 1.8671875 C3.10740578 1.66789781 3.10740578 1.66789781 2 3 Z " fill="#728095" transform="translate(3,2)"/>
<path d="M0 0 C0.99 0.33 1.98 0.66 3 1 C3 3.97 3 6.94 3 10 C2.01 10.33 1.02 10.66 0 11 C0 7.37 0 3.74 0 0 Z " fill="#728095" transform="translate(11,8)"/>
<path d="M0 0 C0.66 0 1.32 0 2 0 C2 4.29 2 8.58 2 13 C1.34 13 0.68 13 0 13 C0 8.71 0 4.42 0 0 Z " fill="#738096" transform="translate(16,6)"/>
<path d="M0 0 C0.66 0 1.32 0 2 0 C2 1.98 2 3.96 2 6 C1.34 6 0.68 6 0 6 C0 4.02 0 2.04 0 0 Z " fill="#738096" transform="translate(7,13)"/>
</svg>
