<?xml version="1.0" encoding="UTF-8"?>
<svg version="1.1" xmlns="http://www.w3.org/2000/svg" width="25" height="25">
<path d="M0 0 C2.75569447 2.18159145 4.43588747 3.87177494 6 7 C6.12370115 11.57694247 5.87838473 14.99613174 2.8125 18.5 C-0.34418084 20.18356312 -2.41534813 20.92684384 -6 21 C-9.28077846 19.67507024 -11.500036 18.499964 -14 16 C-14 14.68 -14 13.36 -14 12 C-11 13 -11 13 -9.625 14.5 C-7.45745964 16.50080649 -5.9198348 16.78635355 -3 17 C-0.66666667 16.66666667 -0.66666667 16.66666667 1 15 C2.00611184 11.37799738 2.44387305 9.08194055 1 5.5625 C-1.99392986 3.2234923 -4.31994536 3.59853949 -8 4 C-8.66 4.66 -9.32 5.32 -10 6 C-9.34 6.33 -8.68 6.66 -8 7 C-8.33 7.99 -8.66 8.98 -9 10 C-11.33294775 10.04241723 -13.66702567 10.04092937 -16 10 C-17 9 -17 9 -17.09765625 7.15234375 C-17.06510417 5.1015625 -17.03255208 3.05078125 -17 1 C-16.01 1 -15.02 1 -14 1 C-13.67 1.66 -13.34 2.32 -13 3 C-12.525625 2.505 -12.05125 2.01 -11.5625 1.5 C-7.77956641 -0.71440015 -4.27835245 -0.83889264 0 0 Z " fill="#728095" transform="translate(17,2)"/>
<path d="M0 0 C0.99 0 1.98 0 3 0 C3.309375 1.093125 3.61875 2.18625 3.9375 3.3125 C4.58337897 5.55407994 5.2623117 7.7869351 6 10 C3.13275314 9.42655063 2.1385485 9.1385485 0 7 C-0.125 3.375 -0.125 3.375 0 0 Z " fill="#728095" transform="translate(11,7)"/>
</svg>
