<?xml version="1.0" encoding="UTF-8"?>
<svg version="1.1" xmlns="http://www.w3.org/2000/svg" width="24" height="25">
<path d="M0 0 C0.66 0 1.32 0 2 0 C2 0.66 2 1.32 2 2 C3.98 2 5.96 2 8 2 C8 1.34 8 0.68 8 0 C8.66 0 9.32 0 10 0 C10 0.66 10 1.32 10 2 C12.475 2.495 12.475 2.495 15 3 C15 9.27 15 15.54 15 22 C11.84150315 23.57924842 8.4634872 23.14316514 5 23.125 C3.89398437 23.13080078 3.89398437 23.13080078 2.765625 23.13671875 C-2.7466804 23.1266598 -2.7466804 23.1266598 -5 22 C-5 15.73 -5 9.46 -5 3 C-3.35 2.67 -1.7 2.34 0 2 C0 1.34 0 0.68 0 0 Z M-3 5 C-3 5.99 -3 6.98 -3 8 C2.28 8 7.56 8 13 8 C13 7.01 13 6.02 13 5 C12.01 5 11.02 5 10 5 C10 5.66 10 6.32 10 7 C9.34 7 8.68 7 8 7 C8 6.34 8 5.68 8 5 C6.02 5 4.04 5 2 5 C2 5.66 2 6.32 2 7 C1.34 7 0.68 7 0 7 C0 6.34 0 5.68 0 5 C-0.99 5 -1.98 5 -3 5 Z M-3 11 C-3 13.64 -3 16.28 -3 19 C-1.86687244 20.35860893 -1.86687244 20.35860893 1.125 20.1328125 C2.40375 20.13023438 3.6825 20.12765625 5 20.125 C6.27875 20.12757812 7.5575 20.13015625 8.875 20.1328125 C11.86687244 20.35860893 11.86687244 20.35860893 13 19 C13 16.36 13 13.72 13 11 C7.72 11 2.44 11 -3 11 Z " fill="#728096" transform="translate(7,1)"/>
</svg>
